<?xml version="1.0" standalone="no"?>
<!DOCTYPE svg PUBLIC "-//W3C//DTD SVG 20010904//EN"
 "http://www.w3.org/TR/2001/REC-SVG-20010904/DTD/svg10.dtd">
<svg version="1.0" xmlns="http://www.w3.org/2000/svg"
 width="512.000000pt" height="512.000000pt" viewBox="0 0 512.000000 512.000000"
 preserveAspectRatio="xMidYMid meet">
<metadata>
Created by potrace 1.11, written by Peter Selinger 2001-2013
</metadata>
<g transform="translate(0.000000,512.000000) scale(0.100000,-0.100000)"
fill="#000000" stroke="none">
<path d="M397 5104 c-99 -24 -167 -62 -243 -138 -77 -78 -114 -144 -139 -248
-22 -95 -22 -4221 0 -4316 41 -174 161 -310 331 -374 l59 -23 2155 0 2155 0
59 23 c154 58 270 178 322 332 18 53 19 134 19 2205 l0 2150 -27 68 c-68 169
-197 281 -370 322 -92 22 -4231 21 -4321 -1z m3326 -1186 l-148 -148 -142 142
c-79 79 -143 147 -143 153 0 5 64 74 142 152 l143 143 147 -147 148 -148 -147
-147z m-1618 -422 c146 -56 299 -175 408 -318 175 -229 213 -476 107 -689 -38
-78 -62 -111 -128 -180 l-53 -57 73 -30 c186 -77 309 -105 458 -105 160 0 262
28 379 103 l61 40 0 470 0 470 -282 0 -283 0 -53 103 c-28 56 -52 114 -52 130
l0 27 659 0 659 0 56 -105 c31 -57 56 -113 56 -125 0 -19 -5 -20 -220 -20
l-220 0 0 -1225 0 -1225 -34 0 c-24 0 -72 22 -160 72 l-126 72 0 504 c0 476
-1 504 -17 499 -10 -4 -52 -18 -93 -33 -92 -33 -227 -38 -330 -11 -74 20 -203
80 -270 125 -24 17 -46 29 -48 28 -2 -2 15 -40 37 -84 61 -120 84 -230 79
-372 -6 -138 -29 -213 -95 -312 -74 -113 -191 -195 -333 -234 -104 -29 -325
-25 -454 9 -120 32 -239 89 -326 155 -132 100 -321 315 -460 522 -62 93 -140
222 -140 233 0 5 56 44 116 80 7 4 28 -19 54 -61 118 -188 330 -424 471 -524
138 -99 277 -148 419 -148 169 0 301 64 391 189 129 179 94 453 -81 644 l-57
62 -104 -27 c-95 -25 -331 -68 -371 -68 -11 0 -37 38 -78 114 l-60 114 16 41
c18 45 7 41 173 61 118 15 256 52 335 90 90 42 178 127 218 208 30 61 33 74
33 162 0 115 -20 165 -99 244 -95 94 -229 145 -345 131 -172 -20 -278 -71
-511 -243 -16 -12 -25 0 -94 131 -42 80 -76 150 -76 156 0 31 318 180 473 222
101 27 227 21 322 -15z"/>
</g>
</svg>
