<svg xmlns="http://www.w3.org/2000/svg" width="28" height="28" viewBox="0 0 24 24" fill="none" stroke="#f0f6fc" stroke-width="2" stroke-linecap="round" stroke-linejoin="round" class="feather feather-instagram" style=""><path width="20" height="20" d="M 7,2 L 17,2 A 5,5,0,0,1,22,7 L 22,17 A 5,5,0,0,1,17,22 L 7,22 A 5,5,0,0,1,2,17 L 2,7 A 5,5,0,0,1,7,2" class="uYmsJrwm_0"></path><path d="M16 11.37A4 4 0 1 1 12.63 8 4 4 0 0 1 16 11.37z" class="uYmsJrwm_1"></path><path d="M17.5,6.5L17.51,6.5" class="uYmsJrwm_2"></path><style data-made-with="vivus-instant">.uYmsJrwm_0{stroke-dasharray:72 74;stroke-dashoffset:73;animation:uYmsJrwm_draw 1666ms ease 0ms forwards;}.uYmsJrwm_1{stroke-dasharray:26 28;stroke-dashoffset:27;animation:uYmsJrwm_draw 1666ms ease 416ms forwards;}.uYmsJrwm_2{stroke-dasharray:1 3;stroke-dashoffset:2;animation:uYmsJrwm_draw 1666ms ease 833ms forwards;}@keyframes uYmsJrwm_draw{100%{stroke-dashoffset:0;}}@keyframes uYmsJrwm_fade{0%{stroke-opacity:1;}94.02985074626866%{stroke-opacity:1;}100%{stroke-opacity:0;}}</style></svg>