<svg xmlns="http://www.w3.org/2000/svg" width="28" height="28" viewBox="0 0 24 24" fill="none" stroke="#f0f6fc" stroke-width="2" stroke-linecap="round" stroke-linejoin="round" class="feather feather-linkedin" style=""><path d="M16 8a6 6 0 0 1 6 6v7h-4v-7a2 2 0 0 0-2-2 2 2 0 0 0-2 2v7h-4v-7a6 6 0 0 1 6-6z" class="DCmUeULI_0"></path><path width="4" height="12" d="M2 9 L6 9 L6 21 L2 21 Z" class="DCmUeULI_1"></path><path d="M2,4A2,2 0,1,1 6,4A2,2 0,1,1 2,4" class="DCmUeULI_2"></path><style data-made-with="vivus-instant">.DCmUeULI_0{stroke-dasharray:62 64;stroke-dashoffset:63;animation:DCmUeULI_draw 1666ms ease 0ms forwards;}.DCmUeULI_1{stroke-dasharray:32 34;stroke-dashoffset:33;animation:DCmUeULI_draw 1666ms ease 416ms forwards;}.DCmUeULI_2{stroke-dasharray:13 15;stroke-dashoffset:14;animation:DCmUeULI_draw 1666ms ease 833ms forwards;}@keyframes DCmUeULI_draw{100%{stroke-dashoffset:0;}}@keyframes DCmUeULI_fade{0%{stroke-opacity:1;}94.02985074626866%{stroke-opacity:1;}100%{stroke-opacity:0;}}</style></svg>