<svg id="logosandtypes_com" xmlns="http://www.w3.org/2000/svg" viewBox="0 0 150 150.2"><path d="M0 .2h150v150H0V.2z" fill="none"/><g><path d="M39.3 136.9H28V82.3h21.9v-22h48.7c-.4-.9-.8-1.7-1.2-2.6-3.2-5.3-8-8.3-14.2-8.3-17.8-.1-55.2 0-55.2 0V37.9l21.8-21.3h55.8c13.9 0 26.1 11.5 27 25.3 1 13.9-9.5 25.8-22.4 28.7 0 0-1.5 6.3-4 10.2-5.5 8.1-13.1 12.4-22.9 12.5-6.9.1-22.2 0-22.2 0v21.4l-21.8 22.2zm70.8-77.4c10.7-3.9 15.1-18 7.5-26.4-3.6-4-8.3-5.6-13.7-5.6-12.1.1-49.2 0-49.2 0L43.4 37.8c-.6 0 25.8.1 39.8 0 11.4 0 19.6 6.2 24.8 16.3.8 1.8 2.1 5.4 2.1 5.4zM98.6 71.4H61.1v11H83c3.8 0 7.5-1.3 10.5-3.8 2.3-1.9 4.1-4.4 5.1-7.2zm-59.6 50L49.9 110V93.2H39v28.2z"/></g></svg>